Coordinates
nRows=9
nColumns=38

# SIMM Motion File Header:
name Coordinates
datacolumns 38
datarows 9
otherdata 1
range 0.75500000000000000000 0.76300000000000001000

Units are S.I. units (second, meters, Newtons, ...)
Angles are in degrees.

endheader
time	pelvis_tilt	pelvis_list	pelvis_rotation	pelvis_tx	pelvis_ty	pelvis_tz	hip_flexion_r	hip_adduction_r	hip_rotation_r	knee_angle_r	ankle_angle_r	subtalar_angle_r	mtp_angle_r	hip_flexion_l	hip_adduction_l	hip_rotation_l	knee_angle_l	ankle_angle_l	subtalar_angle_l	mtp_angle_l	lumbar_extension	lumbar_bending	lumbar_rotation	arm_flex_r	arm_add_r	arm_rot_r	elbow_flex_r	pro_sup_r	wrist_flex_r	wrist_dev_r	arm_flex_l	arm_add_l	arm_rot_l	elbow_flex_l	pro_sup_l	wrist_flex_l	wrist_dev_l
      0.75500000000000000000	     -5.05736335514103970000	      2.56023721883826070000	      2.55215608439657470000	      0.71919426805023634000	      1.02644267007342460000	     -0.30817499550091476000	     -6.20728512140309620000	     -0.24099098105139471000	     -7.66071033318004790000	    -48.90883872099910000000	    -20.68281942527074700000	     -0.00000000000006362580	     -0.00000000000000711061	     25.78833444878058100000	      6.38528658993179650000	     -4.13333793592680280000	    -17.85181177045080500000	     -9.02328487684522430000	     -0.00000000000001756296	      0.00000000000003404558	     -1.30980558489242860000	     -1.10906066357518630000	      5.23086680262715120000	    -15.63765924689119800000	    -16.83887868216848800000	     -0.23978412790759129000	     94.98551767596832500000	     88.69576743181778500000	     -0.00000000000004236997	     -0.00000000000002315368	    -42.23198562209415700000	    -36.30887578557354100000	     15.81540197932666000000	    102.97387850079565000000	     69.30255120325870200000	      0.00000000000000264888	      0.00000000000006054482
      0.75600000000000001000	     -5.00946594723099810000	      2.52439587844743410000	      2.58174786893271960000	      0.71916053684454062000	      1.02605025579826670000	     -0.30817422213805834000	     -6.09011126688293200000	     -0.26839171058060718000	     -7.76690209268304080000	    -49.42778879554988000000	    -20.58269247252957300000	     -0.00000000000006396118	     -0.00000000000000701622	     25.68203842255226700000	      6.34652821493112910000	     -4.21134391496488900000	    -17.76154877422832700000	     -9.09192932652827150000	     -0.00000000000001766895	      0.00000000000003428141	     -1.35106649646025740000	     -1.09965847132539870000	      5.15619506712118450000	    -15.67329837736539300000	    -16.84751026219697000000	     -0.19912666496172365000	     94.86109887123649300000	     88.60268896849207500000	     -0.00000000000004254333	     -0.00000000000002324186	    -42.11198111459437900000	    -36.29784606928733800000	     15.87052888468818100000	    102.97080329289807000000	     69.20828524794211500000	      0.00000000000000265589	      0.00000000000006084106
      0.75700000000000001000	     -4.96151725363372180000	      2.48956640872933520000	      2.61153329199921340000	      0.71912385399873813000	      1.02564803508566690000	     -0.30817262447679400000	     -5.97089942877958980000	     -0.29702687728096555000	     -7.87177940209425750000	    -49.94838447851743300000	    -20.48114735203506600000	     -0.00000000000006429745	     -0.00000000000000692071	     25.57827182366662200000	      6.30883570985871330000	     -4.28672378543885020000	    -17.68263517126573300000	     -9.16065636077139620000	     -0.00000000000001777518	      0.00000000000003451760	     -1.39261021682722700000	     -1.09182117857193100000	      5.08061370920401960000	    -15.70847992860452000000	    -16.85584536181852400000	     -0.15831868735935306000	     94.73382804028966600000	     88.50570952951878200000	     -0.00000000000004271697	     -0.00000000000002333060	    -41.98851506025684400000	    -36.28778744305371600000	     15.92798234268972600000	    102.96654789079902000000	     69.11650049118900100000	      0.00000000000000266331	      0.00000000000006113738
      0.75800000000000001000	     -4.91351621862690460000	      2.45569204002460810000	      2.64153004903560000000	      0.71908430340191298000	      1.02523599988628230000	     -0.30817024169013241000	     -5.84969828632131780000	     -0.32677171974636032000	     -7.97525862336971510000	    -50.47046758699384800000	    -20.37830069462220500000	     -0.00000000000006463381	     -0.00000000000000682348	     25.47702064739268800000	      6.27218961425092570000	     -4.35919248874741600000	    -17.61509726574356800000	     -9.22905372774623340000	     -0.00000000000001788223	      0.00000000000003475597	     -1.43442625747151230000	     -1.08547808785348020000	      5.00412002378598330000	    -15.74322247714954100000	    -16.86390631522269600000	     -0.11734646504829001000	     94.60374416523127600000	     88.40503067311348700000	     -0.00000000000004289116	     -0.00000000000002342025	    -41.86166857466674400000	    -36.27868416618346700000	     15.98768416039035500000	    102.96114144433152000000	     69.02746576428570800000	      0.00000000000000267177	      0.00000000000006143399
      0.75900000000000001000	     -4.86545998416187860000	      2.42271411999617920000	      2.67175615929791020000	      0.71904197209756859000	      1.02481414249148920000	     -0.30816711728522722000	     -5.72655708584856350000	     -0.35750356396178151000	     -8.07727010738948610000	    -50.99388339033689000000	    -20.27427192519405400000	     -0.00000000000006497305	     -0.00000000000000672382	     25.37826908815962000000	      6.23656696146226610000	     -4.42848043859376170000	    -17.55896605328707900000	     -9.29667057484030930000	     -0.00000000000001798888	      0.00000000000003499444	     -1.47650571249772900000	     -1.08055541248406460000	      4.92671022492484580000	    -15.77754698469565000000	    -16.87171788278767100000	     -0.07619547812912187700	     94.47088968341724100000	     88.30085757761283100000	     -0.00000000000004306603	     -0.00000000000002351120	    -41.73152411176639000000	    -36.27051885414589800000	     16.04955530163738000000	    102.95461542198518000000	     68.94144435841522500000	      0.00000000000000268009	      0.00000000000006173022
      0.76000000000000001000	     -4.81734384623512570000	      2.39057248624786480000	      2.70222974639420950000	      0.71899694998911812000	      1.02438245549926220000	     -0.30816329888664917000	     -5.60152557465389480000	     -0.38910254708567360000	     -8.17775800119331110000	    -51.51848096823677300000	    -20.16918269635698400000	     -0.00000000000006531325	     -0.00000000000000662349	     25.28199922663710100000	      6.20194168199511340000	     -4.49433450895475950000	    -17.51427668053493000000	     -9.36301109471161650000	     -0.00000000000001809545	      0.00000000000003523281	     -1.51884139729062890000	     -1.07697669221890590000	      4.84837963119723800000	    -15.81147671793791400000	    -16.87930718973565200000	     -0.03485055230192674000	     94.33531057962217400000	     88.19339798123536400000	     -0.00000000000004324114	     -0.00000000000002360304	    -41.59816519530823300000	    -36.26327253245341400000	     16.11351614684361500000	    102.94700356414896000000	     68.85869297304626000000	      0.00000000000000268800	      0.00000000000006202701
      0.76100000000000001000	     -4.76916142648501750000	      2.35920629992745210000	      2.73296924494319220000	      0.71894932881779561000	      1.02394093223403000000	     -0.30815883853453518000	     -5.47465370180079260000	     -0.42145284475794759000	     -8.27668057275340100000	    -52.04411365221781700000	    -20.06315629233181100000	     -0.00000000000006565525	     -0.00000000000000651991	     25.18819139179192800000	      6.16828527624639470000	     -4.55652062126039770000	    -17.48106802885023500000	     -9.42755855702939980000	     -0.00000000000001820151	      0.00000000000003546956	     -1.56142786133701850000	     -1.07466377371312730000	      4.76912243521844110000	    -15.84503701716893600000	    -16.88670344195282200000	      0.00670402366417084060	     94.19705618087370200000	     88.08286125738091200000	     -0.00000000000004341520	     -0.00000000000002369573	    -41.46167602595173900000	    -36.25692479520035500000	     16.17948675080888800000	    102.93834170048881000000	     68.77946063374197600000	      0.00000000000000269471	      0.00000000000006232358
      0.76200000000000001000	     -4.72090409710216010000	      2.32855328097245850000	      2.76399212492695280000	      0.71889920356537118000	      1.02348956562532870000	     -0.30815379114433811000	     -5.34599214265624840000	     -0.45444203114617648000	     -8.37400847497162810000	    -52.57063909361176000000	    -19.95631711205092500000	     -0.00000000000006599824	     -0.00000000000000641488	     25.09682207348095400000	      6.13556665693228620000	     -4.61481966742062610000	    -17.45938133448173700000	     -9.48969598143291290000	     -0.00000000000001830729	      0.00000000000003570591	     -1.60426186288981690000	     -1.07353584295455180000	      4.68893293046528830000	    -15.87825550714180700000	    -16.89393837250830900000	      0.04848431034810570700	     94.05617989511132700000	     87.96945707507723000000	     -0.00000000000004358899	     -0.00000000000002378953	    -41.32214148374215800000	    -36.25145360348376800000	     16.24738711875354700000	    102.92866797461451000000	     68.70398781323690700000	      0.00000000000000270106	      0.00000000000006262000
      0.76300000000000001000	     -4.67256316498096600000	      2.29855422797109150000	      2.79531865501727680000	      0.71884666515915141000	      1.02302835220534940000	     -0.30814821830910166000	     -5.21558979941780090000	     -0.48796608424147392000	     -8.46972881483278780000	    -53.09792028069126200000	    -19.84878980829040200000	     -0.00000000000006634127	     -0.00000000000000631085	     25.00787031125861400000	      6.10375435261015560000	     -4.66904826470654120000	    -17.44926174468459500000	     -9.54897634033071260000	     -0.00000000000001841204	      0.00000000000003594107	     -1.64734111502573930000	     -1.07351504452064690000	      4.60780181572379010000	    -15.91116053933029800000	    -16.90104391368280900000	      0.09050673321628517600	     93.91273632959185100000	     87.85339574468196100000	     -0.00000000000004376302	     -0.00000000000002388410	    -41.17964565650545000000	    -36.24683643136491200000	     16.31713741387627400000	    102.91802143939786000000	     68.63250522808827700000	      0.00000000000000270659	      0.00000000000006291590
